<svg width="14" height="16" viewBox="0 0 14 16" fill="none" xmlns="http://www.w3.org/2000/svg">
<path d="M0.903266 7.526C0.778754 7.40148 0.708804 7.23259 0.708804 7.0565C0.708804 6.8804 0.778754 6.71152 0.903266 6.587L5.59727 1.896C6.02653 1.45571 6.53894 1.10503 7.10478 0.864307C7.67062 0.623585 8.27863 0.497609 8.89354 0.493686C9.50844 0.489763 10.118 0.607972 10.6869 0.841456C11.2557 1.07494 11.7726 1.41905 12.2074 1.85383C12.6423 2.28861 12.9865 2.8054 13.22 3.37423C13.4536 3.94306 13.5719 4.55261 13.5681 5.16752C13.5642 5.78242 13.4384 6.39045 13.1977 6.95633C12.9571 7.5222 12.6065 8.03467 12.1663 8.464L6.06627 14.564C5.44133 15.1734 4.60143 15.512 3.72858 15.5064C2.85574 15.5008 2.02025 15.1514 1.40317 14.5341C0.786097 13.9168 0.437138 13.0811 0.431914 12.2083C0.42669 11.3354 0.765623 10.4957 1.37527 9.871L6.53627 4.71C6.9112 4.34401 7.41528 4.14057 7.93921 4.14378C8.46315 4.14699 8.9647 4.35659 9.33512 4.72714C9.70554 5.09769 9.91496 5.59932 9.91799 6.12325C9.92101 6.64719 9.71738 7.1512 9.35127 7.526L5.59727 11.279C5.47288 11.4034 5.30418 11.4733 5.12827 11.4733C4.95236 11.4733 4.78365 11.4034 4.65927 11.279C4.53488 11.1546 4.465 10.9859 4.465 10.81C4.465 10.6341 4.53488 10.4654 4.65927 10.341L8.41227 6.587C8.47386 6.52541 8.52271 6.45229 8.55604 6.37182C8.58938 6.29135 8.60653 6.2051 8.60653 6.118C8.60653 6.0309 8.58938 5.94465 8.55604 5.86418C8.52271 5.78371 8.47386 5.71059 8.41227 5.649C8.35068 5.58741 8.27756 5.53855 8.19709 5.50522C8.11662 5.47189 8.03037 5.45473 7.94327 5.45473C7.85617 5.45473 7.76992 5.47189 7.68945 5.50522C7.60897 5.53855 7.53586 5.58741 7.47427 5.649L2.31327 10.81C1.93997 11.1833 1.73026 11.6896 1.73026 12.2175C1.73026 12.4789 1.78175 12.7377 1.88178 12.9792C1.98181 13.2207 2.12843 13.4402 2.31327 13.625C2.4981 13.8098 2.71753 13.9565 2.95903 14.0565C3.20053 14.1565 3.45937 14.208 3.72077 14.208C4.24868 14.208 4.75497 13.9983 5.12827 13.625L11.2283 7.525C11.5485 7.2197 11.8044 6.85343 11.981 6.44774C12.1576 6.04206 12.2513 5.60516 12.2565 5.16274C12.2617 4.72032 12.1784 4.28132 12.0115 3.87157C11.8446 3.46183 11.5974 3.08961 11.2844 2.77681C10.9715 2.46402 10.5992 2.21697 10.1894 2.05021C9.77954 1.88344 9.34051 1.80032 8.89809 1.80574C8.45567 1.81116 8.01881 1.90502 7.6132 2.08178C7.20759 2.25854 6.84143 2.51463 6.53627 2.835L1.84427 7.526C1.71978 7.65021 1.55112 7.71996 1.37527 7.71996C1.19942 7.71996 1.03075 7.65021 0.906266 7.526" fill="black" fill-opacity="0.45"/>
</svg>
