<svg width="16" height="18" viewBox="0 0 16 18" fill="none" xmlns="http://www.w3.org/2000/svg">
<path d="M3.06803 17.5003C2.39522 17.5036 1.74634 17.2509 1.25303 16.7933C1.01085 16.5723 0.817318 16.3033 0.684753 16.0034C0.552189 15.7034 0.483492 15.3792 0.483032 15.0513C0.496501 14.471 0.712202 13.9137 1.09288 13.4755C1.47356 13.0373 1.99531 12.7458 2.56803 12.6513L4.24103 12.3323V4.10034C4.24967 3.60706 4.42833 3.13188 4.74681 2.7551C5.06529 2.37831 5.50408 2.12301 5.98903 2.03234L12.755 0.555341C12.9226 0.518991 13.0936 0.500554 13.265 0.500341C13.8454 0.484993 14.4082 0.700185 14.8302 1.09882C15.2523 1.49745 15.4993 2.04706 15.517 2.62734V12.8793C15.5045 13.4682 15.2862 14.0341 14.9 14.4788C14.5139 14.9236 13.9843 15.2192 13.403 15.3143L13.358 15.3213C13.1876 15.3538 13.0145 15.3702 12.841 15.3703C12.1679 15.3739 11.5186 15.1211 11.025 14.6633C10.7832 14.4423 10.5899 14.1734 10.4575 13.8737C10.3251 13.574 10.2565 13.25 10.256 12.9223C10.2695 12.3422 10.485 11.7849 10.8655 11.3468C11.246 10.9086 11.7675 10.617 12.34 10.5223L14.014 10.2003V4.93534L5.74503 6.73534V15.0063C5.73241 15.5951 5.51409 16.1608 5.12795 16.6054C4.7418 17.05 4.2122 17.3454 3.63103 17.4403L3.58703 17.4473C3.41608 17.4813 3.24231 17.499 3.06803 17.5003V17.5003ZM4.24103 13.7803L2.86303 14.0433C2.62144 14.0815 2.40094 14.2034 2.24009 14.3876C2.07923 14.5719 1.98824 14.8068 1.98303 15.0513C1.99114 15.3323 2.11053 15.5986 2.31494 15.7916C2.51935 15.9845 2.79204 16.0884 3.07303 16.0803C3.14619 16.0801 3.21918 16.0731 3.29103 16.0593L3.33503 16.0523C3.58379 16.011 3.81035 15.8842 3.97572 15.6939C4.14108 15.5035 4.23491 15.2614 4.24103 15.0093V13.7803ZM14.013 11.6513L12.635 11.9143C12.3938 11.9528 12.1738 12.0748 12.0135 12.2591C11.8532 12.4433 11.7627 12.6781 11.758 12.9223C11.7661 13.2028 11.8851 13.4686 12.0889 13.6615C12.2926 13.8544 12.5646 13.9586 12.845 13.9513C12.9182 13.9511 12.9912 13.9441 13.063 13.9303L13.106 13.9233C13.3551 13.8822 13.5821 13.7554 13.7476 13.5648C13.9132 13.3742 14.0071 13.1318 14.013 12.8793V11.6513ZM13.259 1.92234C13.2026 1.92253 13.1463 1.92857 13.091 1.94034L6.32803 3.41634C6.16695 3.44732 6.02131 3.53244 5.91526 3.65758C5.80922 3.78272 5.74915 3.94036 5.74503 4.10434V5.27534L14.014 3.47534V2.62834C14.0072 2.43488 13.9241 2.25198 13.7828 2.11967C13.6415 1.98735 13.4535 1.9164 13.26 1.92234H13.259Z" fill="#4461F2"/>
</svg>
