<svg width="14" height="16" viewBox="0 0 14 16" fill="none" xmlns="http://www.w3.org/2000/svg">
<path d="M0.750647 7.52594C0.626135 7.40142 0.556185 7.23253 0.556185 7.05644C0.556185 6.88034 0.626135 6.71146 0.750647 6.58694L5.44464 1.89594C5.8739 1.45565 6.38631 1.10497 6.95215 0.864246C7.51799 0.623524 8.126 0.497548 8.7409 0.493625C9.35581 0.489702 9.96537 0.607911 10.5342 0.841395C11.1031 1.07488 11.6199 1.41899 12.0548 1.85377C12.4896 2.28855 12.8338 2.80534 13.0674 3.37417C13.301 3.943 13.4193 4.55255 13.4154 5.16745C13.4116 5.78236 13.2857 6.39039 13.0451 6.95626C12.8045 7.52214 12.4539 8.03461 12.0136 8.46394L5.91364 14.5639C5.2887 15.1733 4.4488 15.5119 3.57596 15.5063C2.70311 15.5007 1.86763 15.1514 1.25055 14.534C0.633478 13.9167 0.284519 13.0811 0.279295 12.2082C0.274072 11.3354 0.613004 10.4956 1.22265 9.87094L6.38364 4.70994C6.75857 4.34395 7.26265 4.14051 7.78658 4.14372C8.31051 4.14693 8.81207 4.35653 9.18248 4.72708C9.5529 5.09763 9.76233 5.59926 9.76535 6.12319C9.76837 6.64713 9.56475 7.15114 9.19863 7.52594L5.44464 11.2789C5.32025 11.4033 5.15155 11.4732 4.97564 11.4732C4.79973 11.4732 4.63103 11.4033 4.50664 11.2789C4.38225 11.1546 4.31237 10.9858 4.31237 10.8099C4.31237 10.634 4.38225 10.4653 4.50664 10.3409L8.25963 6.58694C8.32122 6.52535 8.37008 6.45223 8.40341 6.37176C8.43674 6.29129 8.4539 6.20504 8.4539 6.11794C8.4539 6.03084 8.43674 5.94459 8.40341 5.86412C8.37008 5.78365 8.32122 5.71053 8.25963 5.64894C8.19804 5.58735 8.12493 5.53849 8.04446 5.50516C7.96398 5.47183 7.87774 5.45467 7.79063 5.45467C7.70353 5.45467 7.61729 5.47183 7.53681 5.50516C7.45634 5.53849 7.38323 5.58735 7.32164 5.64894L2.16064 10.8099C1.78735 11.1832 1.57764 11.6895 1.57764 12.2174C1.57764 12.4788 1.62913 12.7377 1.72916 12.9792C1.82919 13.2207 1.97581 13.4401 2.16064 13.6249C2.34548 13.8098 2.56491 13.9564 2.80641 14.0564C3.04791 14.1565 3.30675 14.2079 3.56814 14.2079C4.09606 14.2079 4.60235 13.9982 4.97564 13.6249L11.0756 7.52494C11.3959 7.21963 11.6518 6.85337 11.8284 6.44768C12.005 6.042 12.0986 5.60509 12.1039 5.16268C12.1091 4.72026 12.0258 4.28126 11.8589 3.87151C11.6919 3.46177 11.4447 3.08955 11.1318 2.77675C10.8189 2.46396 10.4465 2.21691 10.0367 2.05015C9.62691 1.88338 9.18787 1.80026 8.74546 1.80568C8.30304 1.8111 7.86618 1.90496 7.46057 2.08171C7.05496 2.25847 6.6888 2.51457 6.38364 2.83494L1.69165 7.52594C1.56716 7.65015 1.3985 7.7199 1.22265 7.7199C1.0468 7.7199 0.878129 7.65015 0.753647 7.52594" fill="black" fill-opacity="0.45"/>
</svg>
