<svg width="25" height="25" viewBox="0 0 25 25" fill="none" xmlns="http://www.w3.org/2000/svg">
<g clip-path="url(#clip0_3_204)">
<path d="M24.7761 12.511C24.7761 11.5047 24.6945 10.7703 24.5177 10.0088H13.0266V14.5508H19.7716C19.6357 15.6795 18.9014 17.3794 17.2695 18.5217L17.2466 18.6737L20.8799 21.4884L21.1316 21.5135C23.4434 19.3784 24.7761 16.2371 24.7761 12.511Z" fill="#4285F4"/>
<path d="M13.0266 24.4781C16.3311 24.4781 19.1053 23.3901 21.1316 21.5135L17.2695 18.5217C16.236 19.2424 14.8488 19.7456 13.0266 19.7456C9.79008 19.7456 7.04311 17.6106 6.06389 14.6597L5.92036 14.6719L2.14242 17.5956L2.09302 17.733C4.10564 21.731 8.23974 24.4781 13.0266 24.4781Z" fill="#34A853"/>
<path d="M6.06394 14.6597C5.80557 13.8982 5.65603 13.0822 5.65603 12.2391C5.65603 11.3959 5.80557 10.58 6.05035 9.81849L6.0435 9.6563L2.21822 6.68555L2.09307 6.74508C1.26357 8.40417 0.787598 10.2673 0.787598 12.2391C0.787598 14.211 1.26357 16.074 2.09307 17.733L6.06394 14.6597Z" fill="#FBBC05"/>
<path d="M13.0266 4.73241C15.3248 4.73241 16.875 5.72512 17.759 6.55472L21.2131 3.18216C19.0918 1.21031 16.3311 0 13.0266 0C8.23974 0 4.10564 2.74697 2.09302 6.74503L6.0503 9.81844C7.04311 6.86747 9.79008 4.73241 13.0266 4.73241Z" fill="#EB4335"/>
</g>
<defs>
<clipPath id="clip0_3_204">
<rect width="24" height="24.5625" fill="white" transform="translate(0.787598)"/>
</clipPath>
</defs>
</svg>
