<svg width="18" height="14" viewBox="0 0 18 14" fill="none" xmlns="http://www.w3.org/2000/svg">
<path d="M2.53949 13.2305C1.86644 13.2299 1.22109 12.9624 0.745082 12.4866C0.269071 12.0108 0.0012827 11.3655 0.000488281 10.6925V3.30847C0.00101796 2.63525 0.268689 1.98975 0.744729 1.51371C1.22077 1.03767 1.86627 0.77 2.53949 0.76947L10.8465 0.76947C11.5025 0.770232 12.1328 1.02458 12.6056 1.47932C13.0785 1.93406 13.3572 2.55399 13.3835 3.20947L15.7835 2.24847C16.1813 2.08946 16.626 2.09495 17.0198 2.26372C17.4136 2.43249 17.7243 2.75072 17.8835 3.14847C17.9603 3.33916 17.9997 3.54288 17.9995 3.74847V10.2485C17.9997 10.5126 17.935 10.7727 17.8113 11.0061C17.6876 11.2394 17.5085 11.4388 17.2898 11.5869C17.0711 11.7349 16.8194 11.8271 16.5568 11.8552C16.2941 11.8834 16.0286 11.8468 15.7835 11.7485L13.3835 10.7885C13.3572 11.444 13.0785 12.0639 12.6056 12.5186C12.1328 12.9734 11.5025 13.2277 10.8465 13.2285L2.53949 13.2305ZM1.38449 3.30847V10.6925C1.38502 10.9985 1.50691 11.2919 1.72343 11.5082C1.93994 11.7246 2.23342 11.8462 2.53949 11.8465H10.8465C11.1525 11.8462 11.4458 11.7245 11.6622 11.5082C11.8786 11.2918 12.0002 10.9984 12.0005 10.6925V3.30847C12.0002 3.0024 11.8786 2.70893 11.6623 2.49241C11.4459 2.27589 11.1526 2.154 10.8465 2.15347H2.53949C2.23333 2.154 1.93985 2.27586 1.72336 2.49235C1.50687 2.70884 1.38502 3.00231 1.38449 3.30847V3.30847ZM16.3005 10.4695C16.3355 10.4833 16.3733 10.4884 16.4107 10.4843C16.4481 10.4802 16.4839 10.467 16.515 10.4459C16.5462 10.4249 16.5717 10.3965 16.5894 10.3633C16.607 10.3301 16.6164 10.2931 16.6165 10.2555V3.75547C16.6164 3.71786 16.607 3.68085 16.5894 3.64765C16.5717 3.61446 16.5462 3.58608 16.515 3.565C16.4839 3.54391 16.4481 3.53074 16.4107 3.52664C16.3733 3.52254 16.3355 3.52763 16.3005 3.54147L13.3855 4.69947V9.29947L16.3005 10.4695Z" fill="#4461F2"/>
</svg>
