<svg width="12" height="12" viewBox="0 0 12 12" fill="none" xmlns="http://www.w3.org/2000/svg">
<path d="M10.8815 10.7017C10.9574 10.6256 11 10.5225 11 10.415C11 10.3075 10.9574 10.2045 10.8815 10.1283L7.96103 7.2089C8.5294 6.51133 8.83911 5.6387 8.83769 4.7389C8.83651 3.6999 8.42325 2.7038 7.68858 1.96912C6.95391 1.23444 5.95782 0.821184 4.91884 0.820007C3.87986 0.821184 2.88377 1.23444 2.1491 1.96912C1.41443 2.7038 1.00118 3.6999 1 4.7389C1.00118 5.77789 1.41443 6.77399 2.1491 7.50867C2.88377 8.24335 3.87986 8.65661 4.91884 8.65778C5.81864 8.65921 6.69125 8.34949 7.38881 7.78112L10.3093 10.7017C10.3851 10.7773 10.4878 10.8199 10.5949 10.82C10.6481 10.8201 10.7008 10.8097 10.75 10.7894C10.7992 10.7691 10.8439 10.7393 10.8815 10.7017ZM8.02714 4.7389C8.02626 5.56286 7.69855 6.35282 7.11593 6.93545C6.5333 7.51808 5.74335 7.84579 4.9194 7.84667C4.09535 7.84594 3.30525 7.51829 2.72251 6.93565C2.13977 6.353 1.81198 5.56295 1.8111 4.7389C1.81198 3.91493 2.13969 3.12497 2.72231 2.54234C3.30494 1.95971 4.09489 1.632 4.91884 1.63112C5.74289 1.63185 6.53299 1.9595 7.11573 2.54214C7.69848 3.12479 8.02626 3.91484 8.02714 4.7389Z" fill="#676767" stroke="#676767" stroke-width="0.5"/>
</svg>
