<svg width="18" height="18" viewBox="0 0 18 18" fill="none" xmlns="http://www.w3.org/2000/svg">
<path fill-rule="evenodd" clip-rule="evenodd" d="M0.858482 17.7931C1.09555 17.9231 1.36124 17.9921 1.63163 17.9939C1.85536 17.993 2.07655 17.9464 2.28163 17.8569L4.73463 16.8059C6.62394 17.8428 8.82389 18.1633 10.9305 17.7085C13.0371 17.2537 14.9089 16.0543 16.2023 14.3304C17.4956 12.6065 18.1236 10.4739 17.971 8.32418C17.8184 6.17446 16.8954 4.15196 15.3715 2.62805C13.8476 1.10415 11.8251 0.181151 9.6754 0.028545C7.52569 -0.124061 5.39308 0.503971 3.66918 1.79732C1.94528 3.09066 0.745828 4.96249 0.291071 7.06909C-0.163686 9.17569 0.156782 11.3756 1.19363 13.2649L0.142628 15.7179C0.0342328 15.9636 -0.0105829 16.2326 0.0123105 16.5002C0.035204 16.7678 0.12507 17.0252 0.273628 17.2489C0.420431 17.476 0.621418 17.663 0.858482 17.7931ZM5.00648 10.2561C5.00648 9.84185 5.34227 9.50606 5.75648 9.50606H12.2565C12.6707 9.50606 13.0065 9.84185 13.0065 10.2561C13.0065 10.6703 12.6707 11.0061 12.2565 11.0061H5.75648C5.34227 11.0061 5.00648 10.6703 5.00648 10.2561ZM5.75648 6.50606C5.34227 6.50606 5.00648 6.84185 5.00648 7.25606C5.00648 7.67028 5.34227 8.00606 5.75648 8.00606H8.25649C8.6707 8.00606 9.00649 7.67028 9.00649 7.25606C9.00649 6.84185 8.6707 6.50606 8.25649 6.50606H5.75648Z" fill="white"/>
</svg>
