<svg width="18" height="19" viewBox="0 0 18 19" fill="none" xmlns="http://www.w3.org/2000/svg">
<path fill-rule="evenodd" clip-rule="evenodd" d="M0.858467 18.293C1.09553 18.4231 1.36122 18.4921 1.63161 18.4939C1.85535 18.493 2.07653 18.4464 2.28161 18.3569L4.73461 17.3059C6.62393 18.3428 8.82387 18.6632 10.9305 18.2085C13.0371 17.7537 14.9089 16.5543 16.2022 14.8304C17.4956 13.1065 18.1236 10.9739 17.971 8.82416C17.8184 6.67444 16.8954 4.65194 15.3715 3.12803C13.8476 1.60413 11.8251 0.681132 9.67539 0.528526C7.52567 0.37592 5.39306 1.00395 3.66916 2.2973C1.94527 3.59064 0.745813 5.46248 0.291056 7.56907C-0.163702 9.67567 0.156767 11.8756 1.19361 13.7649L0.142613 16.2179C0.0342176 16.4636 -0.0105981 16.7326 0.0122953 17.0002C0.0351887 17.2677 0.125055 17.5252 0.273613 17.7489C0.420416 17.976 0.621403 18.163 0.858467 18.293ZM5.00647 10.756C5.00647 10.3418 5.34226 10.006 5.75647 10.006H12.2565C12.6707 10.006 13.0065 10.3418 13.0065 10.756C13.0065 11.1703 12.6707 11.506 12.2565 11.506H5.75647C5.34226 11.506 5.00647 11.1703 5.00647 10.756ZM5.75647 7.00604C5.34226 7.00604 5.00647 7.34183 5.00647 7.75604C5.00647 8.17026 5.34226 8.50604 5.75647 8.50604H8.25647C8.67068 8.50604 9.00647 8.17026 9.00647 7.75604C9.00647 7.34183 8.67068 7.00604 8.25647 7.00604H5.75647Z" fill="white"/>
</svg>
