<svg width="21" height="25" viewBox="0 0 21 25" fill="none" xmlns="http://www.w3.org/2000/svg">
<path d="M16.8573 23.76C15.5852 25.0663 14.1962 24.86 12.8591 24.2412C11.4441 23.6087 10.146 23.5812 8.6531 24.2412C6.78377 25.0937 5.79719 24.8463 4.68078 23.76C-1.65415 16.8438 -0.719483 6.31125 6.47222 5.92625C8.22471 6.0225 9.44496 6.94375 10.4705 7.02625C12.0023 6.69625 13.4692 5.7475 15.1049 5.87125C17.0651 6.03625 18.5449 6.86125 19.5185 8.34625C15.4683 10.9175 16.429 16.5688 20.1416 18.15C19.4017 20.2125 18.4411 22.2613 16.8444 23.7738L16.8573 23.76ZM10.3407 5.84375C10.146 2.7775 12.4956 0.2475 15.1957 0C15.5722 3.5475 12.1581 6.1875 10.3407 5.84375Z" fill="black"/>
</svg>
