<svg width="19" height="18" viewBox="0 0 19 18" fill="none" xmlns="http://www.w3.org/2000/svg">
<path d="M9.12134 18C4.15064 18 0.121338 13.9707 0.121338 9C0.121338 4.0293 4.15064 0 9.12134 0C14.092 0 18.1213 4.0293 18.1213 9C18.1213 13.9707 14.092 18 9.12134 18ZM9.12134 16.2C11.0309 16.2 12.8622 15.4414 14.2125 14.0912C15.5628 12.7409 16.3213 10.9096 16.3213 9C16.3213 7.09044 15.5628 5.25909 14.2125 3.90883C12.8622 2.55857 11.0309 1.8 9.12134 1.8C7.21178 1.8 5.38043 2.55857 4.03017 3.90883C2.67991 5.25909 1.92134 7.09044 1.92134 9C1.92134 10.9096 2.67991 12.7409 4.03017 14.0912C5.38043 15.4414 7.21178 16.2 9.12134 16.2V16.2ZM8.22134 4.5H10.0213V6.3H8.22134V4.5ZM8.22134 8.1H10.0213V13.5H8.22134V8.1Z" fill="black" fill-opacity="0.45"/>
</svg>
